<svg width="237" height="45" viewBox="0 0 237 45" fill="none" xmlns="http://www.w3.org/2000/svg">
<g clip-path="url(#clip0_420_534)">
<path d="M185.774 15.9116L156.697 28.726L185.939 22.9572L236.141 36.7645L185.774 15.9116Z" fill="white"/>
<path d="M216.144 25.2741L185.664 0L147.727 27.4965H0V28.7259H149.012L185.522 11.7662L216.144 25.2741Z" fill="#98002E"/>
<path d="M26.6416 37.781C27.1303 37.6628 27.5874 37.4579 27.9894 37.182C28.3914 36.9062 28.7303 36.5358 28.9904 36.0945C29.2505 35.6452 29.3767 35.0778 29.3767 34.4001C29.3767 33.675 29.2427 33.0682 28.9668 32.6111C28.6988 32.1461 28.3441 31.7836 27.9106 31.5156C27.485 31.2556 27.0041 31.0743 26.4603 30.9797C25.9322 30.8852 25.3962 30.8379 24.8838 30.8379H20.9113V45.0078H21.5812V37.9859H24.6632L28.8407 44.9526L28.8722 45.0078H29.6368L25.4041 37.9622C25.8061 37.9465 26.2159 37.8913 26.6337 37.7889L26.6416 37.781ZM21.5891 37.3712V31.4526H24.6553C25.1676 31.4526 25.6799 31.4999 26.1765 31.5866C26.6652 31.6733 27.0987 31.8309 27.4771 32.0515C27.8475 32.2722 28.1471 32.5717 28.3678 32.9579C28.5885 33.3361 28.7067 33.8248 28.7067 34.4001C28.7067 35.3379 28.3835 36.0787 27.7372 36.591C27.0908 37.1111 26.1213 37.3712 24.8681 37.3712H21.5812H21.5891Z" fill="white"/>
<path d="M41.1447 37.978H48.3884V37.3475H41.1447V31.4684H48.8377V30.8379H40.4747V44.9999H49.153V44.3773H41.1447V37.978Z" fill="white"/>
<path d="M65.0118 30.8379H64.3024L58.1622 45.0078H58.8953L60.6057 41.0121H68.5351L70.1904 45.0078H70.9155L65.0433 30.9167L65.0118 30.8458V30.8379ZM60.8579 40.3974L64.6335 31.5314L68.2987 40.3974H60.8658H60.8579Z" fill="white"/>
<path d="M81.6037 30.8379H80.9337V44.9999H88.5321V44.3773H81.6037V30.8379Z" fill="white"/>
<path d="M94.9797 31.4684H99.7248V44.9999H100.395V31.4684H105.14V30.8379H94.9797V31.4684Z" fill="white"/>
<path d="M118.319 38.1277L113.913 30.8931L113.881 30.8379H113.093L117.964 38.8213V44.9999H118.634V38.8213L123.513 30.8379H122.741L118.319 38.1277Z" fill="white"/>
<path d="M3.14501 10.2926H3.20018L8.62309 24.8408H10.8774L16.3712 10.2926H16.4264V24.8408H19.6265V6.73047H14.5583L9.89999 19.6H9.82117L5.11554 6.73047H0.0788574V24.8408H3.14501V10.2926Z" fill="white"/>
<path d="M27.3982 6.73047H24.1744V24.8408H27.3982V6.73047Z" fill="white"/>
<path d="M35.1779 15.762H35.2567L43.2098 24.8408H47.7341L38.7091 15.1L47.1745 6.73047H42.8236L35.2567 14.5641H35.1779V6.73047H31.9541V24.8408H35.1779V15.762Z" fill="white"/>
<path d="M62.5998 21.98H53.362V16.8653H61.6776V14.1543H53.362V9.54395H62.1348V6.73047H50.1382V24.8408H62.5998V21.98Z" fill="white"/>
<path d="M76.4882 15.762H76.567L84.5201 24.8408H89.0523L80.0194 15.1L88.4848 6.73047H84.1417L76.567 14.5641H76.4882V6.73047H73.2644V24.8408H76.4882V15.762Z" fill="white"/>
<path d="M92.489 22.6263C93.3481 23.4696 94.3728 24.1237 95.5551 24.5966C96.7374 25.0615 98.0301 25.298 99.4331 25.298C100.836 25.298 102.152 25.0615 103.351 24.5966C104.541 24.1316 105.573 23.4696 106.448 22.6263C107.315 21.7831 107.993 20.7743 108.482 19.6079C108.97 18.4416 109.215 17.1491 109.215 15.7305C109.215 14.312 108.97 12.9722 108.482 11.8058C107.993 10.6395 107.315 9.64647 106.448 8.82685C105.581 8.00724 104.549 7.37677 103.351 6.93543C102.152 6.4941 100.852 6.27344 99.4331 6.27344C98.0143 6.27344 96.7453 6.4941 95.5551 6.93543C94.3728 7.37677 93.3481 8.00724 92.489 8.82685C91.6298 9.64647 90.9519 10.6395 90.4711 11.8058C89.9824 12.9722 89.746 14.2804 89.746 15.7305C89.746 17.1806 89.9903 18.4337 90.4711 19.6079C90.9598 20.7743 91.6298 21.7831 92.489 22.6263ZM93.6949 13.1219C93.9944 12.3181 94.4122 11.6246 94.9639 11.0256C95.5078 10.4267 96.162 9.9617 96.9187 9.61494C97.6754 9.27606 98.5267 9.10268 99.4646 9.10268C100.403 9.10268 101.254 9.27606 102.026 9.61494C102.791 9.95382 103.453 10.4267 103.997 11.0256C104.541 11.6246 104.966 12.3181 105.266 13.1219C105.565 13.9258 105.715 14.7927 105.715 15.7305C105.715 16.6684 105.565 17.5904 105.266 18.4022C104.966 19.2139 104.541 19.9153 103.989 20.5142C103.437 21.1132 102.775 21.5782 102.003 21.9092C101.238 22.2402 100.395 22.4057 99.4725 22.4057C98.5503 22.4057 97.7148 22.2402 96.9502 21.9092C96.1936 21.5782 95.5315 21.1132 94.9797 20.5142C94.428 19.9153 94.0023 19.2139 93.7028 18.4022C93.4033 17.5904 93.2535 16.6999 93.2535 15.7305C93.2535 14.7612 93.4033 13.9258 93.7028 13.1219H93.6949Z" fill="white"/>
<path d="M125.35 21.98H116.112V16.8653H124.427V14.1543H116.112V9.54395H124.892V6.73047H112.896V24.8408H125.35V21.98Z" fill="white"/>
<path d="M132.278 10.8522H132.333L140.925 24.8408H145.023V6.73047H141.8V20.2935H141.744L133.334 6.73047H129.062V24.8408H132.278V10.8522Z" fill="white"/>
</g>
<defs>
<clipPath id="clip0_420_534">
<rect width="236.141" height="45" fill="white"/>
</clipPath>
</defs>
</svg>
